<svg xmlns="http://www.w3.org/2000/svg" width="24" height="24" viewBox="0 0 24 24" fill="#25D366" stroke="white" stroke-width="1" stroke-linecap="round" stroke-linejoin="round"><path d="M19.75 4.21a9.72 9.72 0 0 0-13.62 0 9.72 9.72 0 0 0 0 13.62l2.07 2.06 2.9.87a.49.49 0 0 0 .58-.2l1.17-2.2a.49.49 0 0 0-.1-.59l-1.1-1.1a.48.48 0 0 1-.15-.34.48.48 0 0 1 .15-.34l2.53-2.53a.48.48 0 0 1 .34-.15.48.48 0 0 1 .34.15l1.1 1.1a.49.49 0 0 0 .59.1l2.2-1.17a.49.49 0 0 0 .2-.58l-.87-2.9zM9.09 7.54a.5.5 0 0 1 .5-.5h1.82a.5.5 0 0 1 .5.5v1.82a.5.5 0 0 1-.5.5H9.59a.5.5 0 0 1-.5-.5V7.54zm5.46 5.46a.5.5 0 0 1 .5-.5h1.82a.5.5 0 0 1 .5.5v1.82a.5.5 0 0 1-.5.5h-1.82a.5.5 0 0 1-.5-.5v-1.82z"></path></svg>
